Coordinates
version=1
nRows=26
nColumns=24
inDegrees=yes

Units are S.I. units (second, meters, Newtons, ...)
Angles are in degrees.

endheader
time	pelvis_tilt	pelvis_list	pelvis_rotation	pelvis_tx	pelvis_ty	pelvis_tz	hip_flexion_r	hip_adduction_r	hip_rotation_r	knee_angle_r	ankle_angle_r	subtalar_angle_r	mtp_angle_r	hip_flexion_l	hip_adduction_l	hip_rotation_l	knee_angle_l	ankle_angle_l	subtalar_angle_l	mtp_angle_l	lumbar_extension	lumbar_bending	lumbar_rotation
      1.37900000	     -4.74125526	    -10.17832889	     -9.80482232	      0.83603488	      0.96097988	      0.37208259	    -14.64231555	     10.94657928	     -0.27815100	     -8.88583033	     12.85514112	      0.05474315	      0.94577354	     36.03846629	    -15.19932952	    -14.05366982	      2.96769085	      2.23940291	     -3.26157282	     -3.09717446	     -7.50031409	     10.89377662	     11.96810004
      1.38316667	     -4.74575215	    -10.12748369	    -10.10317044	      0.84190481	      0.95997392	      0.37269801	    -14.93661892	     10.74026299	     -0.09026760	     -9.05158687	     12.83045414	      0.19737959	      0.99214666	     36.06854369	    -15.39686403	    -13.86306507	      2.37426130	      2.62151932	     -3.43390410	     -3.09114020	     -7.50311259	     10.68629018	     11.99629031
      1.38733333	     -4.74100430	    -10.08185162	    -10.55627374	      0.84764636	      0.95910139	      0.37358257	    -15.20414948	     10.50142722	      0.26755818	     -9.31258186	     12.90532306	      0.41601864	      1.17204316	     36.02735668	    -15.70108834	    -13.84587678	      1.77348678	      2.97835407	     -3.41404845	     -3.08399283	     -7.59031611	     10.46040667	     12.42976961
      1.39150000	     -4.71913017	     -9.99974639	    -10.99404416	      0.85357914	      0.95830067	      0.37449142	    -15.51544425	     10.22448605	      0.62142478	     -9.50380133	     12.85442037	      0.52384247	      1.42013615	     35.95729497	    -15.96517477	    -13.92263409	      1.12219238	      3.40480836	     -3.33406154	     -3.07870325	     -7.63218631	     10.18107855	     12.83154800
      1.39566667	     -4.69860503	     -9.89217893	    -11.42506600	      0.85959371	      0.95752509	      0.37533824	    -15.80898430	      9.91242473	      0.93139696	     -9.70805532	     12.72683562	      0.61413838	      1.81578840	     35.85416058	    -16.19101903	    -13.97092326	      0.49343624	      3.82467588	     -3.27584427	     -3.07860223	     -7.66433891	      9.86926242	     13.20876549
      1.39983333	     -4.67946707	     -9.81631017	    -11.82066836	      0.86561469	      0.95671853	      0.37603832	    -16.09054251	      9.62832139	      1.18871801	     -9.93542711	     12.64741165	      0.79606748	      2.21959012	     35.76426677	    -16.41611123	    -13.96588151	     -0.16665252	      4.21812445	     -3.21801101	     -3.07639136	     -7.70197751	      9.61651320	     13.49996655
      1.40400000	     -4.69277391	     -9.75791407	    -12.12048454	      0.87175735	      0.95580598	      0.37647513	    -16.35184522	      9.38063225	      1.35255420	    -10.12770088	     12.51460368	      0.95728368	      2.27799169	     35.71753492	    -16.57945638	    -13.76835244	     -0.80379353	      4.55553295	     -3.35975451	     -3.07228559	     -7.66827752	      9.41953286	     13.52431552
      1.40816667	     -4.65591786	     -9.64623926	    -12.59960681	      0.87783342	      0.95514948	      0.37726586	    -16.60856950	      9.02141202	      1.65039356	    -10.42212108	     12.41097786	      1.17213685	      2.66589962	     35.53249037	    -16.81055261	    -13.94226965	     -1.43557567	      4.89295382	     -3.16877993	     -3.06842310	     -7.73709794	      9.10874908	     14.06558886
      1.41233333	     -4.67106379	     -9.58595777	    -12.88614701	      0.88407296	      0.95428653	      0.37760897	    -16.85425219	      8.76305682	      1.79414334	    -10.62454256	     12.21538315	      1.33334237	      2.72951827	     35.46166653	    -16.94928595	    -13.78666448	     -2.07293148	      5.17118214	     -3.29536157	     -3.06405060	     -7.69075935	      8.92027543	     14.08561529
      1.41650000	     -4.59427086	     -9.44255289	    -13.39026724	      0.89027797	      0.95379359	      0.37841917	    -17.13243979	      8.34391070	      2.11290827	    -10.93016699	     12.03973716	      1.50837184	      3.28008796	     35.16869242	    -17.14843367	    -14.10241272	     -2.65058890	      5.43152837	     -3.01223635	     -3.04045615	     -7.78247069	      8.55223255	     14.65262004
      1.42066667	     -4.47681227	     -9.37103756	    -13.84097237	      0.89647843	      0.95338469	      0.37912553	    -17.49005821	      8.00139379	      2.48695370	    -11.15883588	     11.71073355	      1.53227850	      5.32633317	     34.84030600	    -17.36596809	    -14.34493531	     -3.22414238	      5.57413014	     -2.89233280	     -2.93643942	     -7.92394551	      8.27561026	     15.01854062
      1.42483333	     -4.55290170	     -9.25898852	    -14.08325807	      0.90290122	      0.95246392	      0.37920052	    -17.59232914	      7.68300948	      2.43869655	    -11.47904942	     11.56646739	      1.92826816	      5.53371220	     34.81016608	    -17.40455466	    -14.25631015	     -3.81501393	      5.69275932	     -2.96358099	     -2.91388858	     -7.78138559	      8.06477724	     15.07369876
      1.42900000	     -4.45831328	     -9.13712865	    -14.44742318	      0.90924742	      0.95201434	      0.37959095	    -17.86366456	      7.29139995	      2.61389447	    -11.79040386	     11.28096244	      2.07500576	      6.44614140	     34.50032190	    -17.49153027	    -14.44301761	     -4.33145144	      5.76151431	     -2.93263251	     -2.80758970	     -7.86086020	      7.75198536	     15.47061017
      1.43316667	     -4.53682239	     -9.00585978	    -14.74081763	      0.91573047	      0.95125585	      0.37977289	    -17.93502734	      6.94638663	      2.66584393	    -12.13403731	     10.96658764	      2.32853632	      6.69793102	     34.41418107	    -17.53489535	    -14.52645928	     -4.83259684	      5.61408890	     -2.99617768	     -2.76848999	     -7.70908392	      7.51946020	     15.45826315
      1.43733333	     -4.49260276	     -8.88275961	    -15.05167202	      0.92218447	      0.95077929	      0.38000965	    -18.11952884	      6.56942205	      2.74843949	    -12.47651884	     10.54022844	      2.46118326	     13.12125177	     34.17057719	    -17.58401178	    -14.75527012	     -5.31358396	      5.46158452	     -2.92398700	     -1.39209210	     -7.71680639	      7.24092207	     15.68775477
      1.44150000	     -4.51713824	     -8.73192417	    -15.30030680	      0.92869145	      0.95020923	      0.38005109	    -18.20230720	      6.19838122	      2.77343784	    -12.86489641	     10.15711971	      2.62779230	     13.15787970	     34.00540464	    -17.55255528	    -14.85486366	     -5.72516535	      5.10293776	     -3.15853250	     -1.37780463	     -7.61794940	      6.97263432	     15.78512046
      1.44566667	     -4.48964429	     -8.54767169	    -15.55149847	      0.93523822	      0.94979386	      0.38008704	    -18.30510943	      5.77177449	      2.77385359	    -13.28752173	      9.75132150	      2.85909645	     13.24199782	     33.77076346	    -17.48153625	    -15.05212111	     -6.11256824	      4.68489839	     -3.32511221	     -1.34245029	     -7.56883726	      6.64808242	     15.92153082
      1.44983333	     -4.47490679	     -8.38441008	    -15.76675681	      0.94178029	      0.94939386	      0.38007187	    -18.38309297	      5.38537990	      2.77256534	    -13.72712285	      9.28328578	      3.02301050	     13.35470882	     33.57600667	    -17.41324200	    -15.26482721	     -6.49638816	      4.15937617	     -3.49229118	     -1.28615342	     -7.50528920	      6.35499211	     16.01587612
      1.45400000	     -4.45644337	     -8.19490560	    -15.96147597	      0.94835169	      0.94906416	      0.38000452	    -18.43086274	      4.97642454	      2.74583687	    -14.20545966	      8.78421673	      3.18113984	     13.49993010	     33.38134109	    -17.30243997	    -15.48291579	     -6.86144209	      3.51400240	     -3.73311557	     -1.21062804	     -7.43764178	      6.03503241	     16.09413646
      1.45816667	     -4.31766096	     -7.98432739	    -16.09973942	      0.95491532	      0.94897685	      0.37975661	    -18.56729538	      4.51155296	      2.63148422	    -14.71274229	      8.26953314	      3.46568232	     13.92137039	     33.05817642	    -17.10349083	    -15.69321026	     -7.16866088	      2.73213378	     -4.05356969	     -0.97492919	     -7.51010208	      5.66368469	     16.22958547
      1.46233333	     -4.37011023	     -7.79075281	    -16.22826827	      0.96152447	      0.94862752	      0.37961212	    -18.49503970	      4.15516796	      2.59867271	    -15.25847593	      7.64564727	      3.44600663	     14.08843403	     33.00330670	    -16.97347598	    -15.90473496	     -7.57306578	      1.95532063	     -4.28840073	     -0.88222886	     -7.34223028	      5.36439571	     16.15825712
      1.46650000	     -4.36896191	     -7.56036672	    -16.32492317	      0.96812907	      0.94842376	      0.37932971	    -18.42626546	      3.74301722	      2.49264941	    -15.86495027	      7.02707146	      3.53009930	     14.33449922	     32.89342212	    -16.76711957	    -16.08117218	     -7.93524877	      1.04137496	     -4.66830462	     -0.74335882	     -7.23411793	      5.01379548	     16.15123927
      1.47066667	     -4.35515293	     -7.33099240	    -16.36248279	      0.97475661	      0.94827960	      0.37896182	    -18.35256903	      3.34959926	      2.35479794	    -16.49377946	      6.34823313	      3.58454547	     14.59980274	     32.81553698	    -16.53399830	    -16.22936753	     -8.34729959	      0.09847725	     -5.06057049	     -0.59067176	     -7.13562490	      4.66773475	     16.10268321
      1.47483333	     -4.24755175	     -7.08347584	    -16.27442804	      0.98137422	      0.94826585	      0.37815440	    -18.32786931	      2.91211610	      2.01229283	    -17.18720332	      5.72403673	      3.89599884	     15.41369969	     32.67275674	    -16.16040250	    -16.17964993	     -8.70361333	     -1.00650363	     -5.70409185	     -0.10169019	     -7.15767901	      4.30790850	     16.00840886
      1.47900000	     -4.29080885	     -6.86511683	    -16.20827182	      0.98804906	      0.94810363	      0.37763145	    -18.15047691	      2.58745129	      1.81036177	    -17.87646373	      4.83146171	      3.70665443	     23.26672525	     32.74827546	    -15.90990235	    -16.23587799	     -9.21635289	     -1.97677252	     -6.08607095	      4.62292716	     -6.98984973	      4.00403531	     15.79425743
      1.48316667	     -4.28118146	     -6.62528895	    -16.19859437	      0.99466451	      0.94814050	      0.37725681	    -17.97632904	      2.22310555	      1.71077466	    -18.65215840	      4.00779529	      3.56183755	     23.28715899	     32.75528454	    -15.67246688	    -16.38337256	     -9.75762410	     -2.88710926	     -6.42171332	      4.63839460	     -6.88369335	      3.64159111	     15.70555451
